<svg width="30" height="30" viewBox="0 0 30 30" fill="none" xmlns="http://www.w3.org/2000/svg">
<g clip-path="url(#clip0_143_175)">
<path d="M29.1439 21.1991L22.5814 18.3866C22.3011 18.2672 21.9895 18.242 21.6936 18.3149C21.3978 18.3878 21.1336 18.5549 20.9408 18.7909L18.0346 22.3417C13.4735 20.1912 9.80285 16.5206 7.65234 11.9595L11.2031 9.05323C11.4397 8.86086 11.6071 8.59665 11.68 8.30062C11.753 8.00459 11.7275 7.69286 11.6074 7.41261L8.79492 0.850107C8.66315 0.548002 8.4301 0.301344 8.13595 0.152664C7.8418 0.00398459 7.50499 -0.0373976 7.18359 0.0356534L1.08984 1.4419C0.779982 1.51346 0.503523 1.68793 0.305587 1.93684C0.107652 2.18574 -7.13795e-05 2.4944 3.54856e-08 2.81241C3.54856e-08 17.8417 12.1816 29.9999 27.1875 29.9999C27.5056 30.0001 27.8144 29.8925 28.0634 29.6945C28.3125 29.4966 28.487 29.22 28.5586 28.9101L29.9648 22.8163C30.0374 22.4934 29.9952 22.1552 29.8453 21.86C29.6955 21.5649 29.4475 21.3312 29.1439 21.1991Z" fill="#8DA1FF"/>
</g>
<defs>
<clipPath id="clip0_143_175">
<rect width="30" height="30" fill="white"/>
</clipPath>
</defs>
</svg>
