<svg width="30" height="24" viewBox="0 0 30 24" fill="none" xmlns="http://www.w3.org/2000/svg">
<path d="M29.4316 8.17969C29.6602 7.99805 30 8.16797 30 8.45508V20.4375C30 21.9902 28.7402 23.25 27.1875 23.25H2.8125C1.25977 23.25 0 21.9902 0 20.4375V8.46094C0 8.16797 0.333984 8.00391 0.568359 8.18555C1.88086 9.20508 3.62109 10.5 9.59766 14.8418C10.834 15.7441 12.9199 17.6426 15 17.6309C17.0918 17.6484 19.2188 15.709 20.4082 14.8418C26.3848 10.5 28.1191 9.19922 29.4316 8.17969ZM15 15.75C16.3594 15.7734 18.3164 14.0391 19.3008 13.3242C27.0762 7.68164 27.668 7.18945 29.4609 5.7832C29.8008 5.51953 30 5.10938 30 4.67578V3.5625C30 2.00977 28.7402 0.75 27.1875 0.75H2.8125C1.25977 0.75 0 2.00977 0 3.5625V4.67578C0 5.10938 0.199219 5.51367 0.539062 5.7832C2.33203 7.18359 2.92383 7.68164 10.6992 13.3242C11.6836 14.0391 13.6406 15.7734 15 15.75Z" fill="#8DA1FF"/>
</svg>
