<svg width="24" height="30" viewBox="0 0 24 30" fill="none" xmlns="http://www.w3.org/2000/svg">
<path d="M10.8438 29.3947C2.33027 17.0526 0.75 15.7859 0.75 11.25C0.75 5.03678 5.78678 0 12 0C18.2132 0 23.25 5.03678 23.25 11.25C23.25 15.7859 21.6697 17.0526 13.1562 29.3947C12.5975 30.2018 11.4025 30.2017 10.8438 29.3947ZM12 15.9375C14.5888 15.9375 16.6875 13.8388 16.6875 11.25C16.6875 8.66115 14.5888 6.5625 12 6.5625C9.41115 6.5625 7.3125 8.66115 7.3125 11.25C7.3125 13.8388 9.41115 15.9375 12 15.9375Z" fill="#8DA1FF"/>
</svg>
